<svg xmlns="http://www.w3.org/2000/svg" fill="none" class="prefix__logo--Na10l" data-e2e-test-id="AMBOSS-logo"
  viewBox="0 0 126 20">
  <path fill="#24A3AA" fill-rule="evenodd"
    d="M15.019 18.462H3.949l.7-1.276h9.67l.7 1.276zM10.953 5.687l5.605 10.223H15.08l-4.136-7.544-.73 1.333 3.405 6.211h-8.27l5.604-10.223zm7.765 11.5l-7.773-14.18-.722 1.347L3.888 15.91H2.41l7.804-14.236-.73-1.332L.25 17.186h2.938L1.79 19.738h15.39l-1.399-2.552h2.938z"
    clip-rule="evenodd" />
  <path fill="#000105" fill-rule="evenodd"
    d="M29.349 12.73h8.302l-3.784-9.095a6.674 6.674 0 01-.184-.49 18.86 18.86 0 01-.183-.579c-.061.204-.122.397-.183.579a9.5 9.5 0 01-.184.502L29.35 12.73zm12.401 6.539h-1.035a.463.463 0 01-.3-.096.632.632 0 01-.184-.248l-2.187-5.228h-9.101l-2.174 5.228a.546.546 0 01-.183.242.496.496 0 01-.315.102H25.25l7.582-18h1.336l7.582 18zm11.59-4.479c.052-.135.105-.268.161-.4.056-.131.118-.256.187-.375L60.847 1.51c.068-.11.137-.178.206-.203a.84.84 0 01.283-.038h.914v18h-1.159V3.927c0-.22.013-.453.039-.7L53.958 15.81c-.12.22-.292.33-.515.33h-.206c-.215 0-.386-.11-.515-.33L45.357 3.215c.026.246.039.483.039.712V19.27H44.25v-18h.901a.89.89 0 01.29.038c.073.025.144.093.212.203l7.352 12.518c.13.237.24.492.335.763zm14.718-4.146v7.581h4.55c1.6 0 2.804-.34 3.616-1.024.812-.682 1.218-1.643 1.218-2.88 0-.569-.109-1.08-.327-1.534a3.208 3.208 0 00-.942-1.157c-.41-.318-.915-.562-1.513-.732-.598-.17-1.278-.254-2.038-.254h-4.564zm0-.954h3.935c.838 0 1.554-.106 2.148-.318.594-.212 1.081-.492 1.462-.84.38-.347.66-.742.84-1.183.179-.44.269-.895.269-1.361 0-1.213-.387-2.13-1.16-2.754-.775-.623-1.969-.935-3.584-.935h-3.91v7.39zm-1.308 9.579v-18h5.218c1.034 0 1.93.101 2.686.305.756.203 1.382.502 1.878.897.496.394.865.875 1.109 1.443.243.569.365 1.213.365 1.934 0 .475-.083.933-.25 1.374a4.149 4.149 0 01-.724 1.221 4.65 4.65 0 01-1.16.973 5.596 5.596 0 01-1.57.63c1.427.212 2.525.683 3.294 1.412.77.73 1.154 1.692 1.154 2.888 0 .763-.137 1.45-.41 2.06a4.176 4.176 0 01-1.193 1.552c-.521.424-1.162.749-1.923.974-.76.224-1.624.337-2.59.337H66.75zM97.367 10.514c0-1.26-.177-2.394-.53-3.4-.354-1.005-.852-1.857-1.495-2.556a6.404 6.404 0 00-2.322-1.604c-.905-.37-1.91-.556-3.014-.556-1.087 0-2.08.185-2.982.556a6.543 6.543 0 00-2.328 1.604c-.651.699-1.156 1.551-1.514 2.556-.358 1.006-.537 2.14-.537 3.4 0 1.27.18 2.406.537 3.407.358 1.001.863 1.851 1.514 2.55a6.47 6.47 0 002.328 1.598c.901.366 1.895.55 2.982.55 1.104 0 2.11-.184 3.014-.55a6.334 6.334 0 002.322-1.598c.643-.699 1.14-1.549 1.495-2.55.353-1.001.53-2.137.53-3.407zm1.371 0c0 1.398-.211 2.666-.634 3.803-.422 1.138-1.018 2.109-1.785 2.914a7.911 7.911 0 01-2.755 1.866c-1.07.44-2.256.659-3.558.659-1.285 0-2.462-.22-3.532-.659a7.898 7.898 0 01-2.755-1.866c-.767-.805-1.365-1.776-1.792-2.914-.426-1.137-.64-2.405-.64-3.803 0-1.388.214-2.652.64-3.79.427-1.137 1.024-2.108 1.792-2.914a7.974 7.974 0 012.755-1.872c1.07-.443 2.247-.665 3.532-.665 1.302 0 2.488.22 3.558.658a7.873 7.873 0 012.755 1.873c.767.81 1.363 1.783 1.785 2.92.423 1.138.634 2.402.634 3.79zm11.875-6.838c-.078.145-.19.217-.336.217-.113 0-.258-.078-.435-.236a5.702 5.702 0 00-.72-.524 5.752 5.752 0 00-1.136-.53c-.454-.162-1.014-.243-1.68-.243-.667 0-1.253.093-1.759.28-.506.188-.93.444-1.272.768a3.257 3.257 0 00-.779 1.125 3.464 3.464 0 00-.265 1.342c0 .613.131 1.12.395 1.52.263.401.611.742 1.042 1.023.432.281.922.518 1.471.71.548.191 1.111.381 1.69.568.579.188 1.142.395 1.69.62a6.12 6.12 0 011.471.85c.431.341.78.76 1.042 1.26.264.498.396 1.118.396 1.86 0 .758-.132 1.471-.395 2.14a5.002 5.002 0 01-1.144 1.745 5.394 5.394 0 01-1.837 1.17c-.725.285-1.552.427-2.484.427-1.208 0-2.247-.21-3.118-.632a7.342 7.342 0 01-2.29-1.732l.363-.563c.104-.128.224-.191.362-.191.078 0 .177.05.298.153.121.102.267.228.44.377.173.15.381.311.622.486.242.175.523.337.842.486.32.149.687.274 1.101.377a5.93 5.93 0 001.412.153c.726 0 1.374-.109 1.943-.326a4.263 4.263 0 001.445-.888 3.77 3.77 0 00.901-1.336 4.42 4.42 0 00.31-1.655c0-.64-.132-1.165-.395-1.579a3.387 3.387 0 00-1.043-1.035 6.748 6.748 0 00-1.471-.697 59.893 59.893 0 00-1.69-.55 21.194 21.194 0 01-1.69-.6 5.842 5.842 0 01-1.471-.85 3.901 3.901 0 01-1.042-1.291c-.264-.515-.395-1.161-.395-1.936 0-.605.116-1.19.35-1.752a4.337 4.337 0 011.023-1.489c.449-.43 1.004-.775 1.664-1.035.661-.26 1.414-.39 2.261-.39.95 0 1.802.15 2.558.448a6.137 6.137 0 012.066 1.367l-.311.588zm13.777 0c-.078.145-.19.217-.336.217-.114 0-.258-.078-.435-.236a5.722 5.722 0 00-.721-.524 5.714 5.714 0 00-1.135-.53c-.454-.162-1.015-.243-1.681-.243-.666 0-1.252.093-1.759.28-.505.188-.93.444-1.271.768a3.257 3.257 0 00-.779 1.125 3.447 3.447 0 00-.266 1.342c0 .613.132 1.12.395 1.52.264.401.611.742 1.043 1.023a6.82 6.82 0 001.47.71 79.48 79.48 0 001.691.568c.579.188 1.142.395 1.69.62.548.226 1.038.51 1.471.85.431.341.779.76 1.042 1.26.264.498.395 1.118.395 1.86 0 .758-.131 1.471-.394 2.14a5.002 5.002 0 01-1.144 1.745 5.399 5.399 0 01-1.838 1.17c-.724.285-1.552.427-2.483.427-1.208 0-2.247-.21-3.118-.632a7.331 7.331 0 01-2.29-1.732l.363-.563c.103-.128.223-.191.362-.191.078 0 .177.05.298.153.121.102.267.228.44.377.173.15.38.311.622.486s.522.337.842.486a6.05 6.05 0 001.101.377 5.93 5.93 0 001.412.153c.725 0 1.373-.109 1.943-.326a4.249 4.249 0 001.444-.888 3.76 3.76 0 00.901-1.336 4.4 4.4 0 00.31-1.655c0-.64-.131-1.165-.395-1.579a3.384 3.384 0 00-1.042-1.035 6.792 6.792 0 00-1.471-.697 59.893 59.893 0 00-1.69-.55 21.358 21.358 0 01-1.691-.6 5.853 5.853 0 01-1.47-.85 3.904 3.904 0 01-1.043-1.291c-.263-.515-.395-1.161-.395-1.936 0-.605.116-1.19.35-1.752a4.351 4.351 0 011.023-1.489c.449-.43 1.004-.775 1.665-1.035.661-.26 1.414-.39 2.261-.39.949 0 1.802.15 2.558.448a6.123 6.123 0 012.065 1.367l-.31.588z"
    clip-rule="evenodd" />
</svg>